<svg xmlns="http://www.w3.org/2000/svg" xmlns:xlink="http://www.w3.org/1999/xlink" version="1.1" x="0px" y="0px" viewBox="0 0 100 100" style="enable-background:new 0 0 100 100;" xml:space="preserve"><g><path d="M84,5H16C9.9,5,5,9.6,5,15.3V67c0,5.7,4.9,10.3,11,10.3h7.2v15.3c0,0.9,0.6,1.8,1.5,2.2c0.4,0.2,0.7,0.2,1.1,0.2   c0.6,0,1.2-0.2,1.7-0.5l22.7-17.2H84c6.1,0,11-4.6,11-10.3V15.3C95,9.6,90.1,5,84,5z M89.9,66.9c0,3-2.6,5.4-5.8,5.4H49.2   c-0.6,0-1.2,0.2-1.7,0.5L28.4,87.3V74.7c0-1.3-1.2-2.4-2.6-2.4h-9.8c-3.2,0-5.8-2.4-5.8-5.4V15.5c0-3,2.6-5.4,5.8-5.4h68.2   c3.2,0,5.8,2.4,5.8,5.4V66.9z"/><polygon points="26.5,41.4 36,41.4 36,38 26.5,38 26.5,33.8 36.9,33.8 36.9,30.3 22.4,30.3 22.4,50 37.4,50 37.4,46.5 26.5,46.5     "/><polygon points="52.7,44 44.8,30.3 40.5,30.3 40.5,50 44.4,50 44.4,36 52.4,50 56.5,50 56.5,30.3 52.7,30.3  "/><path d="M69.6,42.7h4.6c-0.2,1.3-0.7,2.3-1.6,3.1c-0.9,0.8-2,1.2-3.4,1.2c-1.4,0-2.7-0.5-3.8-1.5s-1.7-2.7-1.7-5.1   c0-2.4,0.5-4.2,1.5-5.4c1-1.2,2.3-1.8,3.9-1.8c0.8,0,1.6,0.1,2.3,0.4c1.2,0.5,2,1.5,2.3,2.8h4.1c-0.2-1.9-1.1-3.5-2.6-4.8   c-1.5-1.3-3.5-1.9-6-1.9c-2.9,0-5.2,1-7,2.9s-2.6,4.5-2.6,7.7c0,3.2,0.9,5.6,2.6,7.5c1.7,1.8,3.8,2.7,6.4,2.7c1.6,0,2.9-0.3,4-1   c0.6-0.4,1.3-1,2.1-2L75,50h2.7V39.4h-8.2V42.7z"/></g><text x="0" y="115" fill="#000000" font-size="5px" font-weight="bold" font-family="'Helvetica Neue', Helvetica, Arial-Unicode, Arial, Sans-serif">Created by Jonathan Coutiño</text><text x="0" y="120" fill="#000000" font-size="5px" font-weight="bold" font-family="'Helvetica Neue', Helvetica, Arial-Unicode, Arial, Sans-serif">from the Noun Project</text></svg>