<svg xmlns="http://www.w3.org/2000/svg" data-name="Layer 1" viewBox="0 0 64 64" x="0px" y="0px"><title>History</title><path d="M59.62,51.45a1.74,1.74,0,0,0-1.36-.66h-3l0-.16a1.75,1.75,0,0,0-1.71-1.42H50.29V17.53h3A1.66,1.66,0,0,0,54.9,16.2h2.34a1.66,1.66,0,0,0,1.61-2l-.52-2.26a1.65,1.65,0,0,0-1.61-1.29h-.92a1.65,1.65,0,0,0-1.61-1.26H51.85V8.9A1.71,1.71,0,0,0,50.14,7.2H14.6a1.73,1.73,0,0,0-1.58,1H9A1.72,1.72,0,0,0,7.27,9.74H6a1.74,1.74,0,0,0-1.7,1.36l-.62,2.71a1.74,1.74,0,0,0,1.7,2.13h3l0,.16a1.75,1.75,0,0,0,1.71,1.42h4.33V49.21H10.33a1.66,1.66,0,0,0-1.62,1.33H6.37a1.66,1.66,0,0,0-1.61,2l.52,2.27a1.65,1.65,0,0,0,1.61,1.29h.92a1.65,1.65,0,0,0,1.61,1.26h2.34v.46a1.71,1.71,0,0,0,1.71,1.71H49a1.73,1.73,0,0,0,1.58-1h4A1.72,1.72,0,0,0,56.33,57h1.31a1.74,1.74,0,0,0,1.7-1.36L60,52.93A1.74,1.74,0,0,0,59.62,51.45ZM56.29,13.79h-.94l.14-.76h.62Zm-3-2-.63,3.35h-.8V11.77Zm-38-2.17H49.44v3H36a.8.8,0,0,0,0,1.61H49.44v.87H15.28ZM6.18,13.53l.31-1.38H7.63l.26,1.38Zm4.45,1.59-.84-4.48h3.07v4.48Zm6.19,2.41H47.88V49.21H16.83ZM7.31,52.95h.94l-.14.76H7.49Zm3,2L11,51.62h.8V55Zm38,2.17H14.17v-.7H27.6a.8.8,0,0,0,0-1.61H14.17V51.62H48.33Zm2.41-1V51.62H53l.84,4.48Zm6.37-1.51H56l-.26-1.38h1.7Zm-27.94,1a.72.72,0,1,1,.72.72A.72.72,0,0,1,29.17,55.63Zm5.27-42.18a.72.72,0,1,1-.72-.72A.72.72,0,0,1,34.43,13.44ZM31.3,26.12a.8.8,0,0,1-.8.8H20.21a.8.8,0,0,1,0-1.61H30.5A.8.8,0,0,1,31.3,26.12Zm0,3.16a.8.8,0,0,1-.8.8H20.21a.8.8,0,1,1,0-1.61H30.5A.8.8,0,0,1,31.3,29.29Zm0,3.16a.8.8,0,0,1-.8.8H20.21a.8.8,0,0,1,0-1.61H30.5A.8.8,0,0,1,31.3,32.45Zm0,3.16a.8.8,0,0,1-.8.8H20.21a.8.8,0,0,1,0-1.61H30.5A.8.8,0,0,1,31.3,35.62Zm0,3.16a.8.8,0,0,1-.8.8H20.21a.8.8,0,0,1,0-1.61H30.5A.8.8,0,0,1,31.3,38.78Zm0,3.16a.8.8,0,0,1-.8.8H20.21a.8.8,0,0,1,0-1.61H30.5A.8.8,0,0,1,31.3,41.94ZM45.41,26.12a.8.8,0,0,1-.8.8H34.32a.8.8,0,1,1,0-1.61H44.61A.8.8,0,0,1,45.41,26.12Zm0,3.16a.8.8,0,0,1-.8.8H34.32a.8.8,0,1,1,0-1.61H44.61A.8.8,0,0,1,45.41,29.29Zm0,3.16a.8.8,0,0,1-.8.8H34.32a.8.8,0,1,1,0-1.61H44.61A.8.8,0,0,1,45.41,32.45Zm0,3.16a.8.8,0,0,1-.8.8H34.32a.8.8,0,1,1,0-1.61H44.61A.8.8,0,0,1,45.41,35.62Zm0,3.16a.8.8,0,0,1-.8.8H34.32a.8.8,0,1,1,0-1.61H44.61A.8.8,0,0,1,45.41,38.78Zm0,3.16a.8.8,0,0,1-.8.8H34.32a.8.8,0,1,1,0-1.61H44.61A.8.8,0,0,1,45.41,41.94Z"/><text x="0" y="79" fill="#000000" font-size="5px" font-weight="bold" font-family="'Helvetica Neue', Helvetica, Arial-Unicode, Arial, Sans-serif">Created by Ozza Okuonghae</text><text x="0" y="84" fill="#000000" font-size="5px" font-weight="bold" font-family="'Helvetica Neue', Helvetica, Arial-Unicode, Arial, Sans-serif">from the Noun Project</text></svg>