<svg xmlns="http://www.w3.org/2000/svg" xmlns:xlink="http://www.w3.org/1999/xlink" version="1.1" x="0px" y="0px" viewBox="0 0 100 100" enable-background="new 0 0 100 100" xml:space="preserve"><g><path fill="none" d="M28.123,21.999V9.967h-5.526v12.032c0,1.023-0.829,1.853-1.853,1.853H8.706v5.526h12.038   c1.024,0,1.853,0.828,1.853,1.853v12.034h5.526V31.232c0-1.025,0.83-1.853,1.854-1.853h12.026v-5.526H29.976   C28.952,23.852,28.123,23.022,28.123,21.999z"/><path fill="none" d="M73.863,84.487H73.77c-1.498,0-2.717,1.22-2.717,2.721v0.107c0,1.5,1.219,2.718,2.717,2.718   c1.592,0,2.81-1.218,2.81-2.718v-0.107C76.58,85.707,75.361,84.487,73.863,84.487z"/><path fill="none" d="M30.569,70.622l8.504-8.5l-3.907-3.907l-8.501,8.5c-0.724,0.726-1.896,0.726-2.619,0l-8.51-8.508l-3.909,3.907   l8.508,8.51c0.348,0.348,0.543,0.821,0.543,1.31c0,0.492-0.196,0.962-0.543,1.313l-7.984,7.979   c-0.208,0.458-0.15,0.911,0.164,1.228l2.677,2.679c0.469,0.21,0.921,0.151,1.232-0.163l7.817-7.816   c0.695-0.697,1.925-0.697,2.621,0l7.812,7.813c0.352,0.351,1.044,0.351,1.396,0l3.209-3.215l-8.51-8.51   C29.846,72.521,29.846,71.347,30.569,70.622z"/><rect x="57.157" y="69.175" fill="none" width="33.3" height="5.529"/><path fill="none" d="M76.58,56.664v-0.112c0-1.498-1.219-2.718-2.717-2.718H73.77c-1.498,0-2.717,1.22-2.717,2.718v0.109   c0,1.5,1.219,2.718,2.717,2.718C75.361,59.379,76.58,58.162,76.58,56.664z"/><rect x="57.996" y="23.855" fill="none" width="33.3" height="5.524"/><path d="M42.926,20.148H31.828V9.042c0-1.535-1.248-2.782-2.783-2.782h-7.372c-1.534,0-2.781,1.247-2.781,2.782v11.106H7.781   C6.247,20.148,5,21.395,5,22.929v7.372c0,1.534,1.247,2.784,2.78,2.784h11.112v11.101c0,1.537,1.247,2.786,2.781,2.786h7.372   c1.534,0,2.783-1.249,2.783-2.786V33.085h11.098c1.534,0,2.781-1.25,2.781-2.784v-7.372C45.707,21.395,44.46,20.148,42.926,20.148z    M42.002,29.379H29.976c-1.024,0-1.854,0.828-1.854,1.853v12.034h-5.526V31.232c0-1.025-0.829-1.853-1.853-1.853H8.706v-5.526   h12.038c1.024,0,1.853-0.831,1.853-1.853V9.967h5.526v12.032c0,1.023,0.83,1.853,1.854,1.853h12.026V29.379z"/><path d="M91.378,65.47H56.234c-1.534,0-2.783,1.249-2.783,2.784v7.37c0,1.537,1.248,2.784,2.783,2.784h35.145   c1.536,0,2.784-1.247,2.784-2.784v-7.37C94.162,66.72,92.914,65.47,91.378,65.47z M90.456,74.704h-33.3v-5.529h33.3V74.704z"/><path d="M92.219,20.148H57.073c-1.534,0-2.783,1.247-2.783,2.784v7.37c0,1.534,1.248,2.784,2.783,2.784h35.146   c1.533,0,2.781-1.25,2.781-2.784v-7.372C95,21.395,93.752,20.148,92.219,20.148z M91.295,29.379h-33.3v-5.524h33.3V29.379z"/><path d="M80.285,56.664v-0.112c0-3.544-2.881-6.422-6.421-6.422H73.77c-3.541,0-6.421,2.879-6.421,6.422v0.109   c0,3.544,2.88,6.425,6.515,6.425C77.403,63.086,80.285,60.205,80.285,56.664z M71.053,56.661v-0.109   c0-1.498,1.219-2.718,2.717-2.718h0.094c1.498,0,2.717,1.22,2.717,2.718v0.112c0,1.498-1.219,2.715-2.81,2.715   C72.272,59.379,71.053,58.162,71.053,56.661z"/><path d="M73.863,80.783H73.77c-3.541,0-6.421,2.881-6.421,6.425v0.107c0,3.544,2.88,6.425,6.515,6.425   c3.54,0,6.421-2.881,6.421-6.425v-0.107C80.285,83.664,77.403,80.783,73.863,80.783z M76.58,87.315c0,1.5-1.219,2.718-2.81,2.718   c-1.498,0-2.717-1.218-2.717-2.718v-0.107c0-1.5,1.219-2.721,2.717-2.721h0.094c1.498,0,2.717,1.22,2.717,2.721V87.315z"/><path d="M34.5,71.932l7.846-7.845c0.526-0.526,0.815-1.225,0.815-1.965c0-0.745-0.289-1.442-0.815-1.968l-5.205-5.207   c-0.524-0.526-1.223-0.818-1.969-0.818H35.17c-0.748,0-1.447,0.287-1.97,0.814l-7.844,7.842l-7.851-7.847   c-0.525-0.526-1.225-0.818-1.969-0.818h-0.003c-0.745,0-1.445,0.292-1.964,0.816l-5.221,5.217   c-1.078,1.086-1.076,2.847,0.005,3.931l7.85,7.852l-6.718,6.72c-0.237,0.234-0.43,0.492-0.576,0.772   c-1,1.912-0.682,4.182,0.789,5.648l2.74,2.742c0.236,0.234,0.496,0.424,0.756,0.56c0.759,0.397,1.563,0.592,2.348,0.592   c1.219,0,2.396-0.47,3.304-1.378l6.508-6.508l6.503,6.505c1.799,1.795,4.835,1.792,6.635,0l3.861-3.868   c0.526-0.526,0.816-1.228,0.816-1.97c0-0.743-0.291-1.44-0.816-1.966L34.5,71.932z M35.87,84.967c-0.352,0.351-1.044,0.351-1.396,0   l-7.812-7.813c-0.695-0.697-1.925-0.697-2.621,0l-7.817,7.816c-0.312,0.314-0.763,0.373-1.232,0.163l-2.677-2.679   c-0.314-0.317-0.373-0.77-0.164-1.228l7.984-7.979c0.347-0.351,0.543-0.821,0.543-1.313c0-0.49-0.195-0.962-0.543-1.31l-8.508-8.51   l3.909-3.907l8.51,8.508c0.723,0.726,1.896,0.726,2.619,0l8.501-8.5l3.907,3.907l-8.504,8.5c-0.723,0.726-0.723,1.9,0,2.62   l8.51,8.51L35.87,84.967z"/></g><text x="0" y="115" fill="#000000" font-size="5px" font-weight="bold" font-family="'Helvetica Neue', Helvetica, Arial-Unicode, Arial, Sans-serif">Created by Prime Icons</text><text x="0" y="120" fill="#000000" font-size="5px" font-weight="bold" font-family="'Helvetica Neue', Helvetica, Arial-Unicode, Arial, Sans-serif">from the Noun Project</text></svg>