<svg xmlns="http://www.w3.org/2000/svg" data-name="Layer 1" viewBox="0 0 100 100" x="0px" y="0px"><title>22</title><path d="M79.53865,58.40669a39.35626,39.35626,0,0,1-31.975,19.60741v10.529H62.7732a3.93521,3.93521,0,0,1,3.93519,3.93519V95H24.1862v-2.5218a3.9351,3.9351,0,0,1,3.93512-3.93513H43.331V78.01826A39.404,39.404,0,0,1,26.6336,73.30505a.9836.9836,0,0,1-.37384-1.35994l1.112-1.92543a1.02665,1.02665,0,0,1,1.3787-.3796A35.13893,35.13893,0,0,0,63.88,8.80539a1.02493,1.02493,0,0,1-.3592-1.38317l1.11406-1.92346A.98639.98639,0,0,1,66.00139,5.143,39.36612,39.36612,0,0,1,79.53865,58.40669ZM55.45625,24.51525a81.27731,81.27731,0,0,0,8.64686,4.18517c1.31827-6.7986.62641-12.47352-2.23762-15.24114ZM44.8329,17.62031A81.16413,81.16413,0,0,0,52.79465,22.985L59.2039,11.929C55.36665,10.84291,50.0858,13.08439,44.8329,17.62031ZM27.5035,45.6906a86.5819,86.5819,0,0,1,9.48814,4.55614L43.34119,39.292,32.62053,33.12651A57.496,57.496,0,0,0,27.5035,45.6906Zm17.38725-9.07084,6.35048-10.95485a86.43144,86.43144,0,0,1-8.70564-5.90529,57.67567,57.67567,0,0,0-8.36747,10.69462ZM70.80531,55.08332,59.387,48.518A60.92587,60.92587,0,0,1,50.7719,59.65974a28.55321,28.55321,0,0,1,6.19346,6.96242A30.42633,30.42633,0,0,0,70.80531,55.08332ZM63.392,31.75137a86.564,86.564,0,0,1-9.48912-4.5562L47.55235,38.149l10.72257,6.16643A57.49644,57.49644,0,0,0,63.392,31.75137ZM15.42509,42.737a28.73644,28.73644,0,0,1,9.15181,1.86077A60.76265,60.76265,0,0,1,29.958,31.59717L18.53862,25.03085A30.223,30.223,0,0,0,15.42509,42.737Zm4.66309-20.37937L31.50751,28.924a60.92738,60.92738,0,0,1,8.61506-11.14177,28.55285,28.55285,0,0,1-6.19438-6.96241A30.42662,30.42662,0,0,0,20.08818,22.35767Zm-4.1071,23.44956a30.045,30.045,0,0,0,7.584,13.99323,29.59907,29.59907,0,0,1,.27947-12.17965A30.41511,30.41511,0,0,0,15.98108,45.80723Zm13.046,18.17546,6.41023-11.056a81.28468,81.28468,0,0,0-8.64595-4.18517C25.47217,55.54015,26.165,61.21506,29.02707,63.98269Zm7.849-54.219A30.22382,30.22382,0,0,0,42.38525,15.64,29.86033,29.86033,0,0,1,52.83706,9.30782,30.32617,30.32617,0,0,0,36.87605,9.76366ZM54.01749,67.6783a30.227,30.227,0,0,0-5.5092-5.87636,29.86283,29.86283,0,0,1-10.45082,6.33123A30.32624,30.32624,0,0,0,54.01749,67.6783ZM74.9124,31.63474a30.0447,30.0447,0,0,0-7.58392-13.99421A29.60067,29.60067,0,0,1,67.049,29.82116,30.40476,30.40476,0,0,0,74.9124,31.63474ZM60.9356,45.8448l11.41927,6.56632a30.22307,30.22307,0,0,0,3.11358-17.70619,28.73849,28.73849,0,0,1-9.15088-1.86175A60.751,60.751,0,0,1,60.9356,45.8448ZM31.68965,65.512c3.83823,1.087,9.119-1.15346,14.37192-5.69036A81.152,81.152,0,0,0,38.09792,54.456Zm7.96267-13.735a86.43947,86.43947,0,0,1,8.70564,5.9053,57.66758,57.66758,0,0,0,8.36838-10.69469L46.00279,40.82221Z"/><text x="0" y="115" fill="#000000" font-size="5px" font-weight="bold" font-family="'Helvetica Neue', Helvetica, Arial-Unicode, Arial, Sans-serif">Created by MRK</text><text x="0" y="120" fill="#000000" font-size="5px" font-weight="bold" font-family="'Helvetica Neue', Helvetica, Arial-Unicode, Arial, Sans-serif">from the Noun Project</text></svg>