<svg xmlns:dc="http://purl.org/dc/elements/1.1/" xmlns:cc="http://creativecommons.org/ns#" xmlns:rdf="http://www.w3.org/1999/02/22-rdf-syntax-ns#" xmlns:svg="http://www.w3.org/2000/svg" xmlns="http://www.w3.org/2000/svg" xmlns:sodipodi="http://sodipodi.sourceforge.net/DTD/sodipodi-0.dtd" xmlns:inkscape="http://www.inkscape.org/namespaces/inkscape" version="1.1" x="0px" y="0px" viewBox="0 0 100 100"><g transform="translate(0,-952.36218)"><path style="text-indent:0;text-transform:none;direction:ltr;block-progression:tb;baseline-shift:baseline;color:#000000;enable-background:accumulate;" d="m 50,959.36219 c 2.5643,0 4.95041,1.03737 7.0625,2.6875 0.89774,-0.42168 1.8868,-0.6875 2.9375,-0.6875 3.84231,0 7,3.1577 7,7 0,1.94558 -0.82681,3.72656 -2.125,5 -0.005,0.005 0.005,0.0264 0,0.0312 0.25144,0.6028 0.51476,1.24236 0.75,1.875 2.62478,-0.44297 5.11487,-0.67307 7.4375,-0.65625 6.30885,0.0457 11.6367,1.88602 14.15625,6.25 1.55034,2.68526 1.74439,5.90014 0.9375,9.15625 -0.80689,3.25611 -2.55414,6.61426 -5.0625,10.03121 -0.56094,0.7642 -1.17684,1.5459 -1.8125,2.3125 0.63447,0.7654 1.2525,1.5184 1.8125,2.2813 2.50835,3.417 4.25561,6.7751 5.0625,10.0312 0.80689,3.2561 0.61284,6.5023 -0.9375,9.1875 -0.40663,0.7043 -0.89721,1.3207 -1.4375,1.875 0.12702,0.5244 0.21875,1.0639 0.21875,1.6251 0,3.8423 -3.15769,7 -7,7 -2.87175,0 -5.36314,-1.7547 -6.4375,-4.25 -2.16105,-0.015 -4.4916,-0.2179 -6.90625,-0.625 -0.34129,0.9191 -0.71809,1.8006 -1.09375,2.6562 -1.70394,3.8812 -3.74058,7.1102 -6.15625,9.4375 -2.41567,2.3273 -5.30547,3.7813 -8.40625,3.7813 -3.10078,0 -5.99058,-1.454 -8.40625,-3.7813 -2.41567,-2.3273 -4.45231,-5.5563 -6.15625,-9.4375 -0.37424,-0.8524 -0.72236,-1.7408 -1.0625,-2.6562 -1.33765,0.2287 -2.64223,0.3902 -3.90625,0.5 -1.04578,2.5577 -3.55182,4.375 -6.46875,4.375 -3.65427,0 -6.68044,-2.8526 -6.96875,-6.4375 -1.77717,-0.98 -3.25419,-2.3377 -4.25,-4.0625 -1.55034,-2.6853 -1.74439,-5.9314 -0.9375,-9.1875 0.80689,-3.2561 2.55415,-6.6143 5.0625,-10.0313 0.56,-0.7628 1.17803,-1.5159 1.8125,-2.2812 -0.63566,-0.7666 -1.25156,-1.5484 -1.8125,-2.3125 -2.50836,-3.417 -4.25561,-6.77515 -5.0625,-10.03126 -0.80689,-3.25611 -0.61284,-6.47099 0.9375,-9.15625 2.70929,-4.69262 8.59332,-6.49301 15.59375,-6.25 1.89389,0.0657 3.88819,0.30338 5.96875,0.65625 0.34432,-0.92949 0.71437,-1.8546 1.09375,-2.71875 1.70394,-3.8812 3.74058,-7.07895 6.15625,-9.40625 2.41567,-2.3273 5.30547,-3.78125 8.40625,-3.78125 z m 0,4 c -1.86978,0 -3.73369,0.83412 -5.625,2.65625 -1.89131,1.82213 -3.72783,4.61791 -5.28125,8.15625 -0.26644,0.60688 -0.53183,1.25717 -0.78125,1.90625 3.73607,0.90635 7.6691,2.22276 11.6875,3.9375 4.00818,-1.71149 7.92999,-3.03425 11.65625,-3.9375 -0.11058,-0.28816 -0.22983,-0.56377 -0.34375,-0.84375 -0.42559,0.082 -0.86436,0.125 -1.3125,0.125 -3.84231,0 -7,-3.15771 -7,-7 0,-1.33347 0.37397,-2.55982 1.03125,-3.625 -1.34785,-0.92291 -2.69134,-1.375 -4.03125,-1.375 z m 10,2 c -1.68053,0 -3,1.31948 -3,3 0,1.68051 1.31947,3 3,3 1.68053,0 3,-1.31949 3,-3 0,-1.68052 -1.31947,-3 -3,-3 z m 13.0625,13.25 c -1.87887,-0.0136 -3.95472,0.18173 -6.15625,0.53125 1.07991,3.67698 1.87974,7.73892 2.40625,12.0625 3.49184,2.62091 6.62883,5.34727 9.28125,8.125 0.4355,-0.5388 0.85904,-1.09242 1.25,-1.625 2.28672,-3.11506 3.8057,-6.1067 4.4375,-8.65625 0.6318,-2.54955 0.43495,-4.56812 -0.5,-6.1875 -1.51903,-2.63104 -5.16372,-4.20973 -10.71875,-4.25 z m -44.8125,0 c -6.24161,-0.21667 -10.3913,1.40952 -12.03125,4.25 -0.93495,1.61938 -1.1318,3.63795 -0.5,6.1875 0.6318,2.54955 2.15078,5.54119 4.4375,8.65625 0.39096,0.53258 0.8145,1.0862 1.25,1.625 2.64735,-2.77243 5.76629,-5.50862 9.25,-8.125 0.52254,-4.3291 1.36082,-8.41194 2.4375,-12.09375 -1.69976,-0.27046 -3.32976,-0.44744 -4.84375,-0.5 z m 8.78125,1.28125 c -0.74821,2.51026 -1.38735,5.2531 -1.875,8.15625 1.56352,-1.03136 3.16576,-2.06246 4.84375,-3.03125 1.66231,-0.95973 3.34276,-1.82492 5,-2.65625 -2.75307,-1.02394 -5.42591,-1.86308 -7.96875,-2.46875 z m 25.90625,0.0312 c -2.53559,0.60283 -5.19297,1.41986 -7.9375,2.4375 1.66095,0.83262 3.3356,1.69531 5,2.65625 1.67018,0.96428 3.25569,2.00494 4.8125,3.03125 -0.48909,-2.8906 -1.12877,-5.62339 -1.875,-8.125 z m -12.90625,4.46875 c -2.65283,1.189 -5.34798,2.54456 -8.03125,4.09375 -2.68484,1.55009 -5.20494,3.20398 -7.5625,4.90625 -0.29138,2.8909 -0.4375,5.87131 -0.4375,8.96871 0,3.0864 0.14814,6.0874 0.4375,8.9688 2.35756,1.6987 4.87766,3.3249 7.5625,4.875 2.67712,1.5456 5.35515,2.9366 8,4.125 2.64602,-1.1925 5.32083,-2.5782 8,-4.125 2.68484,-1.5501 5.20494,-3.1763 7.5625,-4.875 0.28936,-2.8814 0.4375,-5.8824 0.4375,-8.9687 0,-3.09286 -0.14413,-6.08006 -0.4375,-8.96876 -2.35756,-1.70227 -4.87766,-3.35616 -7.5625,-4.90625 -2.66992,-1.54148 -5.32936,-2.90674 -7.96875,-4.09375 z M 50,995.36219 c 3.84231,0 7,3.15771 7,7.00001 0,3.8423 -3.15769,7 -7,7 -3.84231,0 -7,-3.1577 -7,-7 0,-3.84231 3.15769,-7.00001 7,-7.00001 z m 19.84375,1.34375 c 0.11018,1.8534 0.15625,3.73526 0.15625,5.65626 0,1.9337 -0.077,3.8228 -0.1875,5.6875 2.26142,-1.8681 4.2998,-3.7899 6.09375,-5.6875 -1.78375,-1.8888 -3.81734,-3.79547 -6.0625,-5.65626 z m -39.65625,0 c -2.25247,1.86567 -4.30513,3.76236 -6.09375,5.65626 1.79395,1.8976 3.83233,3.8194 6.09375,5.6875 C 30.07695,1006.185 30,1004.2959 30,1002.3622 c 0,-1.9229 0.0782,-3.80011 0.1875,-5.65626 z M 50,999.36219 c -1.68051,0 -3,1.31951 -3,3.00001 0,1.6805 1.31949,3 3,3 1.68053,0 3,-1.3195 3,-3 0,-1.6805 -1.31947,-3.00001 -3,-3.00001 z m 28.5625,6.03121 c -2.64381,2.7667 -5.74214,5.514 -9.21875,8.125 -0.52242,4.3313 -1.35909,8.411 -2.4375,12.0938 1.83873,0.293 3.6003,0.4612 5.21875,0.5 0.59768,-3.2517 3.46054,-5.75 6.875,-5.75 1.7607,0 3.35853,0.6931 4.59375,1.7812 0.0625,-0.093 0.13147,-0.1842 0.1875,-0.2812 0.93495,-1.6194 1.1318,-3.6692 0.5,-6.2188 -0.6318,-2.5495 -2.15078,-5.5099 -4.4375,-8.625 -0.39671,-0.5404 -0.83869,-1.0777 -1.28125,-1.625 z m -57.125,0 c -0.44256,0.5473 -0.88454,1.0846 -1.28125,1.625 -2.28672,3.1151 -3.8057,6.0755 -4.4375,8.625 -0.6318,2.5496 -0.43495,4.5994 0.5,6.2188 0.4317,0.7477 1.03311,1.3826 1.78125,1.9375 1.22902,-2.0377 3.4658,-3.4375 6,-3.4375 3.3512,0 6.17495,2.3992 6.84375,5.5625 0.73329,-0.078 1.48123,-0.1897 2.25,-0.3125 -1.07841,-3.6828 -1.91508,-7.7625 -2.4375,-12.0938 -3.47661,-2.611 -6.57494,-5.3583 -9.21875,-8.125 z m 43.40625,11.2813 c -1.56352,1.0313 -3.16576,2.0312 -4.84375,3 -1.66593,0.9618 -3.33792,1.8532 -5,2.6875 2.75683,1.0256 5.42379,1.8621 7.96875,2.4687 0.74694,-2.5108 1.38856,-5.2532 1.875,-8.1562 z m -29.6875,0 c 0.48835,2.9144 1.1242,5.6685 1.875,8.1875 2.53559,-0.6074 5.22421,-1.4441 7.96875,-2.4688 -1.66552,-0.8357 -3.32989,-1.7545 -5,-2.7187 -1.67799,-0.9688 -3.28023,-1.9687 -4.84375,-3 z M 79,1024.3622 c -1.68053,0 -3,1.3195 -3,3 0,1.6805 1.31947,3 3,3 1.68053,0 3,-1.3195 3,-3 0,-1.6805 -1.31947,-3 -3,-3 z m -55,0 c -1.68053,0 -3,1.3195 -3,3 0,1.6805 1.31947,3 3,3 1.68053,0 3,-1.3195 3,-3 0,-1.6805 -1.31947,-3 -3,-3 z m 26.03125,0.3437 c -4.02528,1.7238 -7.97733,3.0562 -11.71875,3.9688 0.24942,0.6491 0.51481,1.2681 0.78125,1.875 1.55342,3.5383 3.38994,6.3029 5.28125,8.125 1.89131,1.8221 3.75522,2.6875 5.625,2.6875 1.86978,0 3.73369,-0.8654 5.625,-2.6875 1.89131,-1.8221 3.72783,-4.5867 5.28125,-8.125 0.2701,-0.6152 0.52865,-1.2477 0.78125,-1.9063 -3.71976,-0.9043 -7.65635,-2.2288 -11.65625,-3.9375 z" fill="#000000" fill-opacity="1" stroke="none" marker="none" visibility="visible" display="inline" overflow="visible"/></g></svg>